<mxfile host="app.diagrams.net" modified="2023-12-21T18:24:41.155Z" agent="Mozilla/5.0 (X11; Linux x86_64) AppleWebKit/537.36 (KHTML, like Gecko) Chrome/118.0.0.0 Safari/537.36" etag="4bUDUDJoolv88Eu9NR9u" version="22.1.11" type="device">
  <diagram name="Страница — 1" id="awArnvR5Iuga0fq9ilaS">
    <mxGraphModel dx="2514" dy="2056" grid="1" gridSize="10" guides="1" tooltips="1" connect="1" arrows="1" fold="1" page="1" pageScale="1" pageWidth="827" pageHeight="1169" math="0" shadow="0">
      <root>
        <mxCell id="0" />
        <mxCell id="1" parent="0" />
        <mxCell id="TS6oc4gRKHX0Rn7SnbGG-12" style="edgeStyle=orthogonalEdgeStyle;rounded=0;orthogonalLoop=1;jettySize=auto;html=1;exitX=0.5;exitY=1;exitDx=0;exitDy=0;entryX=0.5;entryY=0;entryDx=0;entryDy=0;strokeWidth=3;" edge="1" parent="1" source="TS6oc4gRKHX0Rn7SnbGG-1" target="TS6oc4gRKHX0Rn7SnbGG-11">
          <mxGeometry relative="1" as="geometry" />
        </mxCell>
        <mxCell id="TS6oc4gRKHX0Rn7SnbGG-1" value="Начало" style="rounded=1;whiteSpace=wrap;html=1;" vertex="1" parent="1">
          <mxGeometry x="366.25" y="-180" width="96" height="30" as="geometry" />
        </mxCell>
        <mxCell id="TS6oc4gRKHX0Rn7SnbGG-8" style="edgeStyle=orthogonalEdgeStyle;rounded=0;orthogonalLoop=1;jettySize=auto;html=1;exitX=0.5;exitY=1;exitDx=0;exitDy=0;entryX=0.5;entryY=0;entryDx=0;entryDy=0;strokeWidth=3;" edge="1" parent="1" source="TS6oc4gRKHX0Rn7SnbGG-2" target="TS6oc4gRKHX0Rn7SnbGG-4">
          <mxGeometry relative="1" as="geometry" />
        </mxCell>
        <mxCell id="TS6oc4gRKHX0Rn7SnbGG-2" value="&lt;div&gt;float norm = 1;&lt;/div&gt;&lt;div&gt;&lt;span style=&quot;background-color: initial;&quot;&gt;int count = 0;&lt;/span&gt;&lt;/div&gt;" style="rounded=0;whiteSpace=wrap;html=1;" vertex="1" parent="1">
          <mxGeometry x="361" y="90" width="106" height="40" as="geometry" />
        </mxCell>
        <mxCell id="TS6oc4gRKHX0Rn7SnbGG-7" style="edgeStyle=orthogonalEdgeStyle;rounded=0;orthogonalLoop=1;jettySize=auto;html=1;exitX=0.5;exitY=1;exitDx=0;exitDy=0;entryX=0.5;entryY=0;entryDx=0;entryDy=0;strokeWidth=3;" edge="1" parent="1" source="TS6oc4gRKHX0Rn7SnbGG-4" target="TS6oc4gRKHX0Rn7SnbGG-89">
          <mxGeometry relative="1" as="geometry">
            <mxPoint x="414" y="280" as="targetPoint" />
          </mxGeometry>
        </mxCell>
        <mxCell id="TS6oc4gRKHX0Rn7SnbGG-9" value="&lt;font style=&quot;font-size: 15px;&quot;&gt;Да&lt;/font&gt;" style="edgeLabel;html=1;align=center;verticalAlign=middle;resizable=0;points=[];" vertex="1" connectable="0" parent="TS6oc4gRKHX0Rn7SnbGG-7">
          <mxGeometry x="-0.15" relative="1" as="geometry">
            <mxPoint as="offset" />
          </mxGeometry>
        </mxCell>
        <mxCell id="TS6oc4gRKHX0Rn7SnbGG-82" style="edgeStyle=orthogonalEdgeStyle;rounded=0;orthogonalLoop=1;jettySize=auto;html=1;exitX=0;exitY=0.5;exitDx=0;exitDy=0;entryX=1;entryY=0.5;entryDx=0;entryDy=0;strokeWidth=3;" edge="1" parent="1" source="TS6oc4gRKHX0Rn7SnbGG-4" target="TS6oc4gRKHX0Rn7SnbGG-81">
          <mxGeometry relative="1" as="geometry" />
        </mxCell>
        <mxCell id="TS6oc4gRKHX0Rn7SnbGG-83" value="&lt;font style=&quot;font-size: 15px;&quot;&gt;Нет&lt;/font&gt;" style="edgeLabel;html=1;align=center;verticalAlign=middle;resizable=0;points=[];" vertex="1" connectable="0" parent="TS6oc4gRKHX0Rn7SnbGG-82">
          <mxGeometry x="-0.0702" relative="1" as="geometry">
            <mxPoint as="offset" />
          </mxGeometry>
        </mxCell>
        <mxCell id="TS6oc4gRKHX0Rn7SnbGG-4" value="norm &amp;gt; eps &amp;amp;&amp;amp; count &amp;lt; maxIteration" style="rhombus;whiteSpace=wrap;html=1;" vertex="1" parent="1">
          <mxGeometry x="286" y="150" width="256" height="70" as="geometry" />
        </mxCell>
        <mxCell id="TS6oc4gRKHX0Rn7SnbGG-78" style="edgeStyle=orthogonalEdgeStyle;rounded=0;orthogonalLoop=1;jettySize=auto;html=1;entryX=0;entryY=0.5;entryDx=0;entryDy=0;strokeWidth=3;exitX=0;exitY=0.5;exitDx=0;exitDy=0;" edge="1" parent="1" source="TS6oc4gRKHX0Rn7SnbGG-87" target="TS6oc4gRKHX0Rn7SnbGG-74">
          <mxGeometry relative="1" as="geometry">
            <mxPoint x="369" y="557.5" as="sourcePoint" />
            <Array as="points">
              <mxPoint x="-120" y="390" />
              <mxPoint x="-120" y="2055" />
            </Array>
          </mxGeometry>
        </mxCell>
        <mxCell id="TS6oc4gRKHX0Rn7SnbGG-79" value="&lt;font style=&quot;font-size: 15px;&quot;&gt;Нет&lt;/font&gt;" style="edgeLabel;html=1;align=center;verticalAlign=middle;resizable=0;points=[];" vertex="1" connectable="0" parent="TS6oc4gRKHX0Rn7SnbGG-78">
          <mxGeometry x="-0.9744" y="-2" relative="1" as="geometry">
            <mxPoint as="offset" />
          </mxGeometry>
        </mxCell>
        <mxCell id="TS6oc4gRKHX0Rn7SnbGG-76" style="edgeStyle=orthogonalEdgeStyle;rounded=0;orthogonalLoop=1;jettySize=auto;html=1;exitX=0.5;exitY=1;exitDx=0;exitDy=0;entryX=0.5;entryY=0;entryDx=0;entryDy=0;strokeWidth=3;" edge="1" parent="1" source="TS6oc4gRKHX0Rn7SnbGG-11" target="TS6oc4gRKHX0Rn7SnbGG-75">
          <mxGeometry relative="1" as="geometry" />
        </mxCell>
        <mxCell id="TS6oc4gRKHX0Rn7SnbGG-11" value="Ввод:&lt;br&gt;&lt;div style=&quot;border-color: var(--border-color);&quot;&gt;int x=2,y=2,z=2, radius = 2;&lt;/div&gt;&lt;div style=&quot;border-color: var(--border-color);&quot;&gt;&amp;nbsp; &amp;nbsp; &amp;nbsp; &amp;nbsp; float T1 = 20.0f;&lt;/div&gt;&lt;div style=&quot;border-color: var(--border-color);&quot;&gt;&amp;nbsp; &amp;nbsp; &amp;nbsp; &amp;nbsp; float T2 = 10.0f;ъ&lt;/div&gt;&lt;div style=&quot;border-color: var(--border-color);&quot;&gt;&amp;nbsp; &amp;nbsp; &amp;nbsp; &amp;nbsp; float T_bottom = 0.0f;&lt;/div&gt;&lt;div style=&quot;border-color: var(--border-color);&quot;&gt;&amp;nbsp; &amp;nbsp; &amp;nbsp; &amp;nbsp; float alpha = 0.05351f;&lt;/div&gt;&lt;div style=&quot;border-color: var(--border-color);&quot;&gt;vector&amp;lt; vector &amp;lt; vector&amp;lt; float &amp;gt; &amp;gt; &amp;gt; matrix;&lt;br&gt;&lt;/div&gt;" style="rounded=0;whiteSpace=wrap;html=1;" vertex="1" parent="1">
          <mxGeometry x="209" y="-110" width="409" height="100" as="geometry" />
        </mxCell>
        <mxCell id="TS6oc4gRKHX0Rn7SnbGG-71" style="edgeStyle=orthogonalEdgeStyle;rounded=0;orthogonalLoop=1;jettySize=auto;html=1;exitX=0;exitY=0.5;exitDx=0;exitDy=0;entryX=0;entryY=0.5;entryDx=0;entryDy=0;strokeWidth=3;" edge="1" parent="1" source="TS6oc4gRKHX0Rn7SnbGG-93" target="TS6oc4gRKHX0Rn7SnbGG-70">
          <mxGeometry relative="1" as="geometry">
            <mxPoint x="369" y="667.5" as="sourcePoint" />
            <Array as="points">
              <mxPoint x="369" y="558" />
              <mxPoint x="-80" y="558" />
              <mxPoint x="-80" y="1975" />
            </Array>
          </mxGeometry>
        </mxCell>
        <mxCell id="TS6oc4gRKHX0Rn7SnbGG-72" value="&lt;font style=&quot;font-size: 15px;&quot;&gt;Нет&lt;/font&gt;" style="edgeLabel;html=1;align=center;verticalAlign=middle;resizable=0;points=[];" vertex="1" connectable="0" parent="TS6oc4gRKHX0Rn7SnbGG-71">
          <mxGeometry x="-0.9637" y="-1" relative="1" as="geometry">
            <mxPoint as="offset" />
          </mxGeometry>
        </mxCell>
        <mxCell id="TS6oc4gRKHX0Rn7SnbGG-21" style="edgeStyle=orthogonalEdgeStyle;rounded=0;orthogonalLoop=1;jettySize=auto;html=1;exitX=0.5;exitY=1;exitDx=0;exitDy=0;entryX=0.5;entryY=0;entryDx=0;entryDy=0;strokeWidth=3;" edge="1" parent="1" source="TS6oc4gRKHX0Rn7SnbGG-16" target="TS6oc4gRKHX0Rn7SnbGG-20">
          <mxGeometry relative="1" as="geometry" />
        </mxCell>
        <mxCell id="TS6oc4gRKHX0Rn7SnbGG-22" value="&lt;font style=&quot;font-size: 15px;&quot;&gt;Да&lt;/font&gt;" style="edgeLabel;html=1;align=center;verticalAlign=middle;resizable=0;points=[];" vertex="1" connectable="0" parent="TS6oc4gRKHX0Rn7SnbGG-21">
          <mxGeometry x="-0.3481" y="1" relative="1" as="geometry">
            <mxPoint as="offset" />
          </mxGeometry>
        </mxCell>
        <mxCell id="TS6oc4gRKHX0Rn7SnbGG-67" style="edgeStyle=orthogonalEdgeStyle;rounded=0;orthogonalLoop=1;jettySize=auto;html=1;exitX=0;exitY=0.5;exitDx=0;exitDy=0;entryX=0;entryY=0.5;entryDx=0;entryDy=0;strokeWidth=3;" edge="1" parent="1" source="TS6oc4gRKHX0Rn7SnbGG-16" target="TS6oc4gRKHX0Rn7SnbGG-65">
          <mxGeometry relative="1" as="geometry">
            <Array as="points">
              <mxPoint x="-40" y="767" />
              <mxPoint x="-40" y="1925" />
            </Array>
          </mxGeometry>
        </mxCell>
        <mxCell id="TS6oc4gRKHX0Rn7SnbGG-68" value="&lt;font style=&quot;font-size: 15px;&quot;&gt;Нет&lt;/font&gt;" style="edgeLabel;html=1;align=center;verticalAlign=middle;resizable=0;points=[];" vertex="1" connectable="0" parent="TS6oc4gRKHX0Rn7SnbGG-67">
          <mxGeometry x="-0.9685" y="4" relative="1" as="geometry">
            <mxPoint x="1" as="offset" />
          </mxGeometry>
        </mxCell>
        <mxCell id="TS6oc4gRKHX0Rn7SnbGG-16" value="k &amp;lt; z" style="rhombus;whiteSpace=wrap;html=1;" vertex="1" parent="1">
          <mxGeometry x="369" y="740" width="89" height="55" as="geometry" />
        </mxCell>
        <mxCell id="TS6oc4gRKHX0Rn7SnbGG-34" style="edgeStyle=orthogonalEdgeStyle;rounded=0;orthogonalLoop=1;jettySize=auto;html=1;exitX=0.5;exitY=1;exitDx=0;exitDy=0;entryX=0.5;entryY=0;entryDx=0;entryDy=0;strokeWidth=3;" edge="1" parent="1" source="TS6oc4gRKHX0Rn7SnbGG-20" target="TS6oc4gRKHX0Rn7SnbGG-28">
          <mxGeometry relative="1" as="geometry" />
        </mxCell>
        <mxCell id="TS6oc4gRKHX0Rn7SnbGG-20" value="&lt;div&gt;float oldTemp = this-&amp;gt;matrix[i][j][k];&lt;/div&gt;&lt;div&gt;&lt;span style=&quot;background-color: initial;&quot;&gt;float newTemp = 0.0f;&lt;/span&gt;&lt;/div&gt;&lt;div&gt;&lt;span style=&quot;background-color: initial;&quot;&gt;int x1 = ((i&amp;gt;0) ? i-1 : i);&lt;br&gt;&lt;/span&gt;&lt;/div&gt;&lt;div&gt;&lt;span style=&quot;background-color: initial;&quot;&gt;int y1 = ((j&amp;gt;0) ? j-1 : j);&lt;/span&gt;&lt;br&gt;&lt;/div&gt;&lt;div&gt;&lt;span style=&quot;background-color: initial;&quot;&gt;int z1 = ((k&amp;gt;0) ? k-1 : k);&lt;br&gt;&lt;/span&gt;&lt;/div&gt;" style="rounded=0;whiteSpace=wrap;html=1;" vertex="1" parent="1">
          <mxGeometry x="318.5" y="840" width="191.5" height="100" as="geometry" />
        </mxCell>
        <mxCell id="TS6oc4gRKHX0Rn7SnbGG-26" style="edgeStyle=orthogonalEdgeStyle;rounded=0;orthogonalLoop=1;jettySize=auto;html=1;exitX=0.5;exitY=1;exitDx=0;exitDy=0;entryX=0.5;entryY=0;entryDx=0;entryDy=0;strokeWidth=3;" edge="1" parent="1" source="TS6oc4gRKHX0Rn7SnbGG-28" target="TS6oc4gRKHX0Rn7SnbGG-31">
          <mxGeometry relative="1" as="geometry" />
        </mxCell>
        <mxCell id="TS6oc4gRKHX0Rn7SnbGG-27" value="&lt;font style=&quot;font-size: 15px;&quot;&gt;Да&lt;/font&gt;" style="edgeLabel;html=1;align=center;verticalAlign=middle;resizable=0;points=[];" vertex="1" connectable="0" parent="TS6oc4gRKHX0Rn7SnbGG-26">
          <mxGeometry x="-0.1153" y="1" relative="1" as="geometry">
            <mxPoint as="offset" />
          </mxGeometry>
        </mxCell>
        <mxCell id="TS6oc4gRKHX0Rn7SnbGG-59" style="edgeStyle=orthogonalEdgeStyle;rounded=0;orthogonalLoop=1;jettySize=auto;html=1;exitX=0;exitY=0.5;exitDx=0;exitDy=0;entryX=0;entryY=0.5;entryDx=0;entryDy=0;strokeWidth=3;" edge="1" parent="1" source="TS6oc4gRKHX0Rn7SnbGG-28" target="TS6oc4gRKHX0Rn7SnbGG-58">
          <mxGeometry relative="1" as="geometry">
            <Array as="points">
              <mxPoint y="997" />
              <mxPoint y="1767" />
            </Array>
          </mxGeometry>
        </mxCell>
        <mxCell id="TS6oc4gRKHX0Rn7SnbGG-60" value="&lt;font style=&quot;font-size: 15px;&quot;&gt;Нет&lt;/font&gt;" style="edgeLabel;html=1;align=center;verticalAlign=middle;resizable=0;points=[];" vertex="1" connectable="0" parent="TS6oc4gRKHX0Rn7SnbGG-59">
          <mxGeometry x="-0.9731" y="3" relative="1" as="geometry">
            <mxPoint x="-23" y="-3" as="offset" />
          </mxGeometry>
        </mxCell>
        <mxCell id="TS6oc4gRKHX0Rn7SnbGG-28" value="x1 &amp;lt;= i+1 &amp;amp;&amp;amp; x1 &amp;lt; x" style="rhombus;whiteSpace=wrap;html=1;" vertex="1" parent="1">
          <mxGeometry x="328" y="970" width="171" height="55" as="geometry" />
        </mxCell>
        <mxCell id="TS6oc4gRKHX0Rn7SnbGG-29" style="edgeStyle=orthogonalEdgeStyle;rounded=0;orthogonalLoop=1;jettySize=auto;html=1;exitX=0.5;exitY=1;exitDx=0;exitDy=0;entryX=0.5;entryY=0;entryDx=0;entryDy=0;strokeWidth=3;" edge="1" parent="1" source="TS6oc4gRKHX0Rn7SnbGG-31" target="TS6oc4gRKHX0Rn7SnbGG-33">
          <mxGeometry relative="1" as="geometry" />
        </mxCell>
        <mxCell id="TS6oc4gRKHX0Rn7SnbGG-30" value="&lt;font style=&quot;font-size: 15px;&quot;&gt;Да&lt;/font&gt;" style="edgeLabel;html=1;align=center;verticalAlign=middle;resizable=0;points=[];" vertex="1" connectable="0" parent="TS6oc4gRKHX0Rn7SnbGG-29">
          <mxGeometry x="-0.3239" y="-1" relative="1" as="geometry">
            <mxPoint as="offset" />
          </mxGeometry>
        </mxCell>
        <mxCell id="TS6oc4gRKHX0Rn7SnbGG-55" style="edgeStyle=orthogonalEdgeStyle;rounded=0;orthogonalLoop=1;jettySize=auto;html=1;exitX=0;exitY=0.5;exitDx=0;exitDy=0;entryX=0;entryY=0.5;entryDx=0;entryDy=0;strokeWidth=3;" edge="1" parent="1" source="TS6oc4gRKHX0Rn7SnbGG-31" target="TS6oc4gRKHX0Rn7SnbGG-54">
          <mxGeometry relative="1" as="geometry">
            <Array as="points">
              <mxPoint x="40" y="1105" />
              <mxPoint x="40" y="1665" />
            </Array>
          </mxGeometry>
        </mxCell>
        <mxCell id="TS6oc4gRKHX0Rn7SnbGG-56" value="&lt;font style=&quot;font-size: 15px;&quot;&gt;Нет&lt;/font&gt;" style="edgeLabel;html=1;align=center;verticalAlign=middle;resizable=0;points=[];" vertex="1" connectable="0" parent="TS6oc4gRKHX0Rn7SnbGG-55">
          <mxGeometry x="-0.9011" y="1" relative="1" as="geometry">
            <mxPoint as="offset" />
          </mxGeometry>
        </mxCell>
        <mxCell id="TS6oc4gRKHX0Rn7SnbGG-31" value="y1 &amp;lt;= j+1 &amp;amp;&amp;amp; y1 &amp;lt; y" style="rhombus;whiteSpace=wrap;html=1;" vertex="1" parent="1">
          <mxGeometry x="326" y="1080" width="176" height="50" as="geometry" />
        </mxCell>
        <mxCell id="TS6oc4gRKHX0Rn7SnbGG-36" style="edgeStyle=orthogonalEdgeStyle;rounded=0;orthogonalLoop=1;jettySize=auto;html=1;exitX=0.5;exitY=1;exitDx=0;exitDy=0;entryX=0.5;entryY=0;entryDx=0;entryDy=0;strokeWidth=3;" edge="1" parent="1" source="TS6oc4gRKHX0Rn7SnbGG-33" target="TS6oc4gRKHX0Rn7SnbGG-35">
          <mxGeometry relative="1" as="geometry" />
        </mxCell>
        <mxCell id="TS6oc4gRKHX0Rn7SnbGG-37" value="&lt;font style=&quot;font-size: 15px;&quot;&gt;Да&lt;/font&gt;" style="edgeLabel;html=1;align=center;verticalAlign=middle;resizable=0;points=[];" vertex="1" connectable="0" parent="TS6oc4gRKHX0Rn7SnbGG-36">
          <mxGeometry x="-0.1664" relative="1" as="geometry">
            <mxPoint as="offset" />
          </mxGeometry>
        </mxCell>
        <mxCell id="TS6oc4gRKHX0Rn7SnbGG-51" style="edgeStyle=orthogonalEdgeStyle;rounded=0;orthogonalLoop=1;jettySize=auto;html=1;exitX=0;exitY=0.5;exitDx=0;exitDy=0;entryX=0;entryY=0.5;entryDx=0;entryDy=0;strokeWidth=3;" edge="1" parent="1" source="TS6oc4gRKHX0Rn7SnbGG-33" target="TS6oc4gRKHX0Rn7SnbGG-50">
          <mxGeometry relative="1" as="geometry">
            <Array as="points">
              <mxPoint x="80" y="1215" />
              <mxPoint x="80" y="1605" />
            </Array>
          </mxGeometry>
        </mxCell>
        <mxCell id="TS6oc4gRKHX0Rn7SnbGG-52" value="&lt;font style=&quot;font-size: 15px;&quot;&gt;Нет&lt;/font&gt;" style="edgeLabel;html=1;align=center;verticalAlign=middle;resizable=0;points=[];" vertex="1" connectable="0" parent="TS6oc4gRKHX0Rn7SnbGG-51">
          <mxGeometry x="-0.9187" y="-1" relative="1" as="geometry">
            <mxPoint as="offset" />
          </mxGeometry>
        </mxCell>
        <mxCell id="TS6oc4gRKHX0Rn7SnbGG-33" value="z1 &amp;lt;= k+1 &amp;amp;&amp;amp; z1 &amp;lt; z" style="rhombus;whiteSpace=wrap;html=1;" vertex="1" parent="1">
          <mxGeometry x="328" y="1190" width="172" height="50" as="geometry" />
        </mxCell>
        <mxCell id="TS6oc4gRKHX0Rn7SnbGG-39" style="edgeStyle=orthogonalEdgeStyle;rounded=0;orthogonalLoop=1;jettySize=auto;html=1;exitX=0.5;exitY=1;exitDx=0;exitDy=0;entryX=0.5;entryY=0;entryDx=0;entryDy=0;strokeWidth=3;" edge="1" parent="1" source="TS6oc4gRKHX0Rn7SnbGG-35" target="TS6oc4gRKHX0Rn7SnbGG-38">
          <mxGeometry relative="1" as="geometry" />
        </mxCell>
        <mxCell id="TS6oc4gRKHX0Rn7SnbGG-40" value="&lt;font style=&quot;font-size: 15px;&quot;&gt;да&lt;/font&gt;" style="edgeLabel;html=1;align=center;verticalAlign=middle;resizable=0;points=[];" vertex="1" connectable="0" parent="TS6oc4gRKHX0Rn7SnbGG-39">
          <mxGeometry x="-0.0454" y="-2" relative="1" as="geometry">
            <mxPoint as="offset" />
          </mxGeometry>
        </mxCell>
        <mxCell id="TS6oc4gRKHX0Rn7SnbGG-44" style="edgeStyle=orthogonalEdgeStyle;rounded=0;orthogonalLoop=1;jettySize=auto;html=1;exitX=0;exitY=0.5;exitDx=0;exitDy=0;entryX=0;entryY=0.5;entryDx=0;entryDy=0;strokeWidth=3;" edge="1" parent="1" source="TS6oc4gRKHX0Rn7SnbGG-35" target="TS6oc4gRKHX0Rn7SnbGG-41">
          <mxGeometry relative="1" as="geometry">
            <Array as="points">
              <mxPoint x="110" y="1335" />
              <mxPoint x="110" y="1545" />
            </Array>
          </mxGeometry>
        </mxCell>
        <mxCell id="TS6oc4gRKHX0Rn7SnbGG-45" value="&lt;font style=&quot;font-size: 15px;&quot;&gt;Нет&lt;/font&gt;" style="edgeLabel;html=1;align=center;verticalAlign=middle;resizable=0;points=[];" vertex="1" connectable="0" parent="TS6oc4gRKHX0Rn7SnbGG-44">
          <mxGeometry x="-0.9083" y="-1" relative="1" as="geometry">
            <mxPoint as="offset" />
          </mxGeometry>
        </mxCell>
        <mxCell id="TS6oc4gRKHX0Rn7SnbGG-35" value="radius &amp;lt;&amp;nbsp;(float) std::sqrt(std::pow(x1 - (float) (x / 2), 2) +&amp;nbsp;&lt;br&gt;&lt;span style=&quot;background-color: initial;&quot;&gt;std::pow(z1 - (float) (z / 2),&lt;/span&gt;&lt;span style=&quot;background-color: initial;&quot;&gt;2)&lt;/span&gt;" style="rhombus;whiteSpace=wrap;html=1;" vertex="1" parent="1">
          <mxGeometry x="162" y="1300" width="503.75" height="70" as="geometry" />
        </mxCell>
        <mxCell id="TS6oc4gRKHX0Rn7SnbGG-43" style="edgeStyle=orthogonalEdgeStyle;rounded=0;orthogonalLoop=1;jettySize=auto;html=1;exitX=0.5;exitY=1;exitDx=0;exitDy=0;entryX=0.5;entryY=0;entryDx=0;entryDy=0;strokeWidth=3;" edge="1" parent="1" source="TS6oc4gRKHX0Rn7SnbGG-38" target="TS6oc4gRKHX0Rn7SnbGG-41">
          <mxGeometry relative="1" as="geometry" />
        </mxCell>
        <mxCell id="TS6oc4gRKHX0Rn7SnbGG-38" value="newTemp += this-&amp;gt;matrix[x1][y1][z1];" style="rounded=0;whiteSpace=wrap;html=1;" vertex="1" parent="1">
          <mxGeometry x="306.25" y="1450" width="216" height="40" as="geometry" />
        </mxCell>
        <mxCell id="TS6oc4gRKHX0Rn7SnbGG-48" style="edgeStyle=orthogonalEdgeStyle;rounded=0;orthogonalLoop=1;jettySize=auto;html=1;exitX=1;exitY=0.5;exitDx=0;exitDy=0;entryX=1;entryY=0.5;entryDx=0;entryDy=0;strokeWidth=3;" edge="1" parent="1" source="TS6oc4gRKHX0Rn7SnbGG-41" target="TS6oc4gRKHX0Rn7SnbGG-33">
          <mxGeometry relative="1" as="geometry">
            <Array as="points">
              <mxPoint x="690" y="1545" />
              <mxPoint x="690" y="1215" />
            </Array>
          </mxGeometry>
        </mxCell>
        <mxCell id="TS6oc4gRKHX0Rn7SnbGG-41" value="z1++;" style="rounded=0;whiteSpace=wrap;html=1;" vertex="1" parent="1">
          <mxGeometry x="361" y="1530" width="106" height="30" as="geometry" />
        </mxCell>
        <mxCell id="TS6oc4gRKHX0Rn7SnbGG-53" style="edgeStyle=orthogonalEdgeStyle;rounded=0;orthogonalLoop=1;jettySize=auto;html=1;exitX=1;exitY=0.5;exitDx=0;exitDy=0;entryX=1;entryY=0.5;entryDx=0;entryDy=0;strokeWidth=3;" edge="1" parent="1" source="TS6oc4gRKHX0Rn7SnbGG-50" target="TS6oc4gRKHX0Rn7SnbGG-31">
          <mxGeometry relative="1" as="geometry">
            <Array as="points">
              <mxPoint x="730" y="1605" />
              <mxPoint x="730" y="1105" />
            </Array>
          </mxGeometry>
        </mxCell>
        <mxCell id="TS6oc4gRKHX0Rn7SnbGG-50" value="y1++;" style="rounded=0;whiteSpace=wrap;html=1;" vertex="1" parent="1">
          <mxGeometry x="361" y="1590" width="106" height="30" as="geometry" />
        </mxCell>
        <mxCell id="TS6oc4gRKHX0Rn7SnbGG-57" style="edgeStyle=orthogonalEdgeStyle;rounded=0;orthogonalLoop=1;jettySize=auto;html=1;exitX=1;exitY=0.5;exitDx=0;exitDy=0;entryX=1;entryY=0.5;entryDx=0;entryDy=0;strokeWidth=3;" edge="1" parent="1" source="TS6oc4gRKHX0Rn7SnbGG-54" target="TS6oc4gRKHX0Rn7SnbGG-28">
          <mxGeometry relative="1" as="geometry">
            <Array as="points">
              <mxPoint x="770" y="1665" />
              <mxPoint x="770" y="997" />
            </Array>
          </mxGeometry>
        </mxCell>
        <mxCell id="TS6oc4gRKHX0Rn7SnbGG-54" value="x1++;" style="rounded=0;whiteSpace=wrap;html=1;" vertex="1" parent="1">
          <mxGeometry x="361" y="1650" width="106" height="30" as="geometry" />
        </mxCell>
        <mxCell id="TS6oc4gRKHX0Rn7SnbGG-62" style="edgeStyle=orthogonalEdgeStyle;rounded=0;orthogonalLoop=1;jettySize=auto;html=1;exitX=0.5;exitY=1;exitDx=0;exitDy=0;entryX=0.5;entryY=0;entryDx=0;entryDy=0;strokeWidth=3;" edge="1" parent="1" source="TS6oc4gRKHX0Rn7SnbGG-58" target="TS6oc4gRKHX0Rn7SnbGG-61">
          <mxGeometry relative="1" as="geometry" />
        </mxCell>
        <mxCell id="TS6oc4gRKHX0Rn7SnbGG-58" value="this-&amp;gt;matrix[i][j][k] = newTemp * this-&amp;gt;alpha;&lt;br&gt;norm = std::abs( newTemp - oldTemp );" style="rounded=0;whiteSpace=wrap;html=1;" vertex="1" parent="1">
          <mxGeometry x="276.25" y="1723" width="276" height="87" as="geometry" />
        </mxCell>
        <mxCell id="TS6oc4gRKHX0Rn7SnbGG-64" style="edgeStyle=orthogonalEdgeStyle;rounded=0;orthogonalLoop=1;jettySize=auto;html=1;exitX=1;exitY=0.5;exitDx=0;exitDy=0;entryX=1;entryY=0.5;entryDx=0;entryDy=0;strokeWidth=3;" edge="1" parent="1" source="TS6oc4gRKHX0Rn7SnbGG-61" target="TS6oc4gRKHX0Rn7SnbGG-16">
          <mxGeometry relative="1" as="geometry">
            <Array as="points">
              <mxPoint x="810" y="1875" />
              <mxPoint x="810" y="767" />
            </Array>
          </mxGeometry>
        </mxCell>
        <mxCell id="TS6oc4gRKHX0Rn7SnbGG-61" value="k++;" style="rounded=0;whiteSpace=wrap;html=1;" vertex="1" parent="1">
          <mxGeometry x="376.25" y="1860" width="76" height="30" as="geometry" />
        </mxCell>
        <mxCell id="TS6oc4gRKHX0Rn7SnbGG-69" style="edgeStyle=orthogonalEdgeStyle;rounded=0;orthogonalLoop=1;jettySize=auto;html=1;exitX=1;exitY=0.5;exitDx=0;exitDy=0;entryX=1;entryY=0.5;entryDx=0;entryDy=0;strokeWidth=3;" edge="1" parent="1" source="TS6oc4gRKHX0Rn7SnbGG-65" target="TS6oc4gRKHX0Rn7SnbGG-93">
          <mxGeometry relative="1" as="geometry">
            <mxPoint x="458" y="667.5" as="targetPoint" />
            <Array as="points">
              <mxPoint x="850" y="1925" />
              <mxPoint x="850" y="558" />
              <mxPoint x="459" y="558" />
            </Array>
          </mxGeometry>
        </mxCell>
        <mxCell id="TS6oc4gRKHX0Rn7SnbGG-65" value="j++;" style="rounded=0;whiteSpace=wrap;html=1;" vertex="1" parent="1">
          <mxGeometry x="376.25" y="1910" width="76" height="30" as="geometry" />
        </mxCell>
        <mxCell id="TS6oc4gRKHX0Rn7SnbGG-73" style="edgeStyle=orthogonalEdgeStyle;rounded=0;orthogonalLoop=1;jettySize=auto;html=1;exitX=1;exitY=0.5;exitDx=0;exitDy=0;entryX=1;entryY=0.5;entryDx=0;entryDy=0;strokeWidth=3;" edge="1" parent="1" source="TS6oc4gRKHX0Rn7SnbGG-70" target="TS6oc4gRKHX0Rn7SnbGG-87">
          <mxGeometry relative="1" as="geometry">
            <mxPoint x="458" y="557.5" as="targetPoint" />
            <Array as="points">
              <mxPoint x="890" y="1975" />
              <mxPoint x="890" y="390" />
            </Array>
          </mxGeometry>
        </mxCell>
        <mxCell id="TS6oc4gRKHX0Rn7SnbGG-70" value="i++;" style="rounded=0;whiteSpace=wrap;html=1;" vertex="1" parent="1">
          <mxGeometry x="376.25" y="1960" width="76" height="30" as="geometry" />
        </mxCell>
        <mxCell id="TS6oc4gRKHX0Rn7SnbGG-80" style="edgeStyle=orthogonalEdgeStyle;rounded=0;orthogonalLoop=1;jettySize=auto;html=1;exitX=1;exitY=0.5;exitDx=0;exitDy=0;entryX=1;entryY=0.5;entryDx=0;entryDy=0;strokeWidth=3;" edge="1" parent="1" source="TS6oc4gRKHX0Rn7SnbGG-74" target="TS6oc4gRKHX0Rn7SnbGG-4">
          <mxGeometry relative="1" as="geometry">
            <mxPoint x="630" y="2055.2121212121215" as="targetPoint" />
            <Array as="points">
              <mxPoint x="930" y="2055" />
              <mxPoint x="930" y="185" />
            </Array>
          </mxGeometry>
        </mxCell>
        <mxCell id="TS6oc4gRKHX0Rn7SnbGG-74" value="count++;" style="rounded=0;whiteSpace=wrap;html=1;" vertex="1" parent="1">
          <mxGeometry x="370" y="2040" width="87" height="30" as="geometry" />
        </mxCell>
        <mxCell id="TS6oc4gRKHX0Rn7SnbGG-77" style="edgeStyle=orthogonalEdgeStyle;rounded=0;orthogonalLoop=1;jettySize=auto;html=1;exitX=0.5;exitY=1;exitDx=0;exitDy=0;entryX=0.5;entryY=0;entryDx=0;entryDy=0;strokeWidth=3;" edge="1" parent="1" source="TS6oc4gRKHX0Rn7SnbGG-75" target="TS6oc4gRKHX0Rn7SnbGG-2">
          <mxGeometry relative="1" as="geometry" />
        </mxCell>
        <mxCell id="TS6oc4gRKHX0Rn7SnbGG-75" value="Подготовка по условию matrix" style="rounded=0;whiteSpace=wrap;html=1;" vertex="1" parent="1">
          <mxGeometry x="354.25" y="20" width="120" height="40" as="geometry" />
        </mxCell>
        <mxCell id="TS6oc4gRKHX0Rn7SnbGG-81" value="Конец" style="rounded=1;whiteSpace=wrap;html=1;" vertex="1" parent="1">
          <mxGeometry x="110" y="167.5" width="80" height="35" as="geometry" />
        </mxCell>
        <mxCell id="TS6oc4gRKHX0Rn7SnbGG-84" style="edgeStyle=orthogonalEdgeStyle;rounded=0;orthogonalLoop=1;jettySize=auto;html=1;exitX=0.5;exitY=1;exitDx=0;exitDy=0;strokeWidth=3;entryX=0.5;entryY=0;entryDx=0;entryDy=0;" edge="1" parent="1" source="TS6oc4gRKHX0Rn7SnbGG-87" target="TS6oc4gRKHX0Rn7SnbGG-96">
          <mxGeometry relative="1" as="geometry">
            <mxPoint x="476.11000000000007" y="520" as="targetPoint" />
          </mxGeometry>
        </mxCell>
        <mxCell id="TS6oc4gRKHX0Rn7SnbGG-85" value="&lt;font style=&quot;font-size: 15px;&quot;&gt;Да&lt;/font&gt;" style="edgeLabel;html=1;align=center;verticalAlign=middle;resizable=0;points=[];" vertex="1" connectable="0" parent="TS6oc4gRKHX0Rn7SnbGG-84">
          <mxGeometry x="-0.1153" y="1" relative="1" as="geometry">
            <mxPoint as="offset" />
          </mxGeometry>
        </mxCell>
        <mxCell id="TS6oc4gRKHX0Rn7SnbGG-87" value="i &amp;lt; x" style="rhombus;whiteSpace=wrap;html=1;" vertex="1" parent="1">
          <mxGeometry x="368.86000000000007" y="360" width="90" height="60" as="geometry" />
        </mxCell>
        <mxCell id="TS6oc4gRKHX0Rn7SnbGG-88" style="edgeStyle=orthogonalEdgeStyle;rounded=0;orthogonalLoop=1;jettySize=auto;html=1;exitX=0.5;exitY=1;exitDx=0;exitDy=0;entryX=0.5;entryY=0;entryDx=0;entryDy=0;strokeWidth=3;" edge="1" parent="1" source="TS6oc4gRKHX0Rn7SnbGG-89" target="TS6oc4gRKHX0Rn7SnbGG-87">
          <mxGeometry relative="1" as="geometry" />
        </mxCell>
        <mxCell id="TS6oc4gRKHX0Rn7SnbGG-89" value="int i =0;" style="rounded=0;whiteSpace=wrap;html=1;" vertex="1" parent="1">
          <mxGeometry x="355.87000000000006" y="300" width="116" height="30" as="geometry" />
        </mxCell>
        <mxCell id="TS6oc4gRKHX0Rn7SnbGG-90" style="edgeStyle=orthogonalEdgeStyle;rounded=0;orthogonalLoop=1;jettySize=auto;html=1;exitX=0.5;exitY=1;exitDx=0;exitDy=0;entryX=0.5;entryY=0;entryDx=0;entryDy=0;strokeWidth=3;" edge="1" parent="1" source="TS6oc4gRKHX0Rn7SnbGG-93" target="TS6oc4gRKHX0Rn7SnbGG-98">
          <mxGeometry relative="1" as="geometry" />
        </mxCell>
        <mxCell id="TS6oc4gRKHX0Rn7SnbGG-91" value="&lt;font style=&quot;font-size: 15px;&quot;&gt;Да&lt;/font&gt;" style="edgeLabel;html=1;align=center;verticalAlign=middle;resizable=0;points=[];" vertex="1" connectable="0" parent="TS6oc4gRKHX0Rn7SnbGG-90">
          <mxGeometry x="-0.3239" y="-1" relative="1" as="geometry">
            <mxPoint as="offset" />
          </mxGeometry>
        </mxCell>
        <mxCell id="TS6oc4gRKHX0Rn7SnbGG-93" value="j &amp;lt; y" style="rhombus;whiteSpace=wrap;html=1;" vertex="1" parent="1">
          <mxGeometry x="370.00000000000006" y="530" width="89" height="55" as="geometry" />
        </mxCell>
        <mxCell id="TS6oc4gRKHX0Rn7SnbGG-95" style="edgeStyle=orthogonalEdgeStyle;rounded=0;orthogonalLoop=1;jettySize=auto;html=1;exitX=0.5;exitY=1;exitDx=0;exitDy=0;entryX=0.5;entryY=0;entryDx=0;entryDy=0;strokeWidth=3;" edge="1" parent="1" source="TS6oc4gRKHX0Rn7SnbGG-96" target="TS6oc4gRKHX0Rn7SnbGG-93">
          <mxGeometry relative="1" as="geometry" />
        </mxCell>
        <mxCell id="TS6oc4gRKHX0Rn7SnbGG-96" value="int j = 0;" style="rounded=0;whiteSpace=wrap;html=1;" vertex="1" parent="1">
          <mxGeometry x="368.87000000000006" y="460" width="90" height="35" as="geometry" />
        </mxCell>
        <mxCell id="TS6oc4gRKHX0Rn7SnbGG-97" style="edgeStyle=orthogonalEdgeStyle;rounded=0;orthogonalLoop=1;jettySize=auto;html=1;exitX=0.5;exitY=1;exitDx=0;exitDy=0;entryX=0.5;entryY=0;entryDx=0;entryDy=0;strokeWidth=3;" edge="1" parent="1" source="TS6oc4gRKHX0Rn7SnbGG-98" target="TS6oc4gRKHX0Rn7SnbGG-16">
          <mxGeometry relative="1" as="geometry">
            <mxPoint x="414.11000000000007" y="721" as="targetPoint" />
          </mxGeometry>
        </mxCell>
        <mxCell id="TS6oc4gRKHX0Rn7SnbGG-98" value="int k = 0;" style="rounded=0;whiteSpace=wrap;html=1;" vertex="1" parent="1">
          <mxGeometry x="365.86000000000007" y="640" width="96" height="30" as="geometry" />
        </mxCell>
      </root>
    </mxGraphModel>
  </diagram>
</mxfile>
